<svg viewBox="0 0 13 13" xmlns="http://www.w3.org/2000/svg" fill="black"><g transform="translate(0,1.5)"><path d="M3.07 11.526c-.627-.704-1.133-1.392-1.622-2.059A11.7 11.7 0 0 1 .292 7.533C.09 7.12 0 6.702.438 6.433c1.253-.77 1.51-.035 2.191.819.404.505 1 1.339 1.372 1.866.356.503.79-.405.964-.661.617-.91 2.219-3.14 2.88-3.964.629-.782 2.657-2.973 3.036-3.322.322-.296 1.001-.947 1.458-.588.48.377.715 1.094.377 1.56-.587.812-1.511 1.585-2.15 2.358-1.293 1.564-2.518 3.251-3.693 4.93-.4.571-.96 1.527-1.309 2.146-.65 1.158-1.223 1.378-2.495-.051"/></g></svg>